Patient4_TMGait_0pt8_01_right_29_EMG.mot
version=1
nRows=23
nColumns=33
inDegrees=no
endheader
time	1LAddLong	2LGlutMax	3LGlutMed	4LIliopsoas	5LSemiMemb	6LBicFemLong	7LRecFem	8LVastMed	9LVastLat	10LGasMed	11LTibAnt	12lTibPost	13LPeroneusLong	14LSol	15LExtDigLong	16LFlexDigLong	17RAddLong	18RGlutMax	19RGlutMed	20RIliopsoas	21RSemiMemb	22RBicFemLong	23RRecFem	24RVastMed	25RVastLat	26RGasMed	27RTibAnt	28RTibPost	29RPeroneusLong	30RSol	31RExtDigLong	32RFlexDigLong
33.593	-0.006866	0.061951	-0.1329	0.009918	0.000763	-0.032654	0.35523	0.013885	-0.10742	-0.020752	-0.092621	0.003815	-0.020905	-0.079346	-0.046844	0.008698	0.00824	0.092316	-0.33279	0.17944	0.003662	0.005798	-0.043793	-0.077209	0.006104	-0.02121	0.066376	0.001068	-0.28671	-0.044708	0.001984	0.024872
33.594	0.014038	0.082703	-0.076904	0.017548	0.001526	-0.00946	0.24811	0.030365	-0.05661	0.000763	-0.031128	-0.002747	0.010986	-0.066986	-0.093384	0.010986	-0.002899	0.11917	-0.12192	0.073547	-0.005493	0.046997	-0.072784	-0.045776	-0.004578	-0.019379	0.087128	0.000916	-0.093994	-0.054016	-0.003052	0.022736
33.595	-0.015106	0.10971	0.043488	-0.003052	0.003357	-0.024872	0.36499	0.007172	0.075531	0.027618	0.034332	-0.001526	-0.087585	-0.07431	-0.031738	0.007782	-0.014496	0.13199	0.22095	-0.008545	-0.003662	0.112	-0.17166	-0.014343	0.020905	-0.015259	0.083923	0.001068	0.37811	-0.0914	-0.00351	0.023804
33.596	-0.025024	0.10346	0.16235	0	0.009003	0.000916	0.50384	-0.006409	0.20004	0.011902	0.088654	0.008087	-0.075378	-0.095673	-0.03006	-0.002899	-0.014648	0.16617	0.29724	-0.010529	0.018463	0.092773	-0.16739	-0.018311	0.019226	-0.014648	0.10681	0.003662	0.52155	-0.084991	-0.003052	0.018616
33.597	-0.011139	0.11566	0.068054	0.019989	0.00351	0.003204	0.63324	-0.00885	0.069427	0.005646	0.1239	-0.001526	-0.10696	-0.10437	0.12161	0.005341	-0.017395	0.15701	0.11139	-0.04425	-0.078583	0.092163	-0.12863	-0.006409	0.01709	-0.011292	0.1355	0.000458	-0.81986	-0.11093	0	0.02655
33.598	-0.007935	0.085907	-0.018158	-0.006409	-0.004883	0.007172	0.62561	-0.006104	-0.04776	-0.02533	-0.046082	-0.001984	0.08255	-0.057983	0.088654	-0.001068	-0.030212	0.10346	0.086517	-0.014038	-0.096588	0.059357	-0.058136	-0.037689	0.018005	-0.011902	0.10162	0.005951	-0.49637	-0.090332	-0.000305	0.018005
33.599	-0.003662	0.12116	0.030212	-0.002289	0.003662	-0.00061	0.7103	0.038452	-0.076599	-0.038452	-0.14557	0.011444	-0.038605	-0.034637	0.010681	0.000305	-0.030823	0.10346	-0.16281	0.019989	-0.033264	0.075989	-0.044861	0.000916	0.019073	-0.01358	0.039063	-0.001831	0.13412	-0.006714	0.001373	0.023651
33.6	0.011597	0.11017	0.031128	0.024567	-0.00061	-0.018005	0.70068	0.013733	-0.016022	0.003967	-0.021667	-0.004272	-0.11749	0.025787	-0.052185	-0.00473	-0.027161	0.11765	-0.16129	0.050659	-0.015869	0.067902	-0.016174	-0.03952	0.025177	-0.010223	0.24262	-0.000305	0.10513	-0.025177	-0.003052	0.024719
33.601	0.007172	0.12009	-0.00412	0.026245	0.009613	-0.027771	0.75211	0.002136	-0.005951	0.005341	0.06012	-0.002289	0.022736	0.085449	-0.000305	-0.001526	-0.007782	0.10742	-0.12009	0.03418	-0.00885	0.001221	-0.020905	-0.040894	0.025177	-0.009155	0.11765	-0.008087	-0.14038	-0.057678	-0.002441	0.023499
33.602	-0.00061	0.1384	-0.011902	0.009003	0.004272	0.009613	0.74799	0.001526	0.095215	-0.012512	0.2121	-0.003052	0.12329	0.11398	0.18036	-0.006866	0.001831	0.10941	-0.32608	0.011292	0.003967	-0.015106	-0.032806	0.007172	0.021973	-0.006714	-0.33142	-0.000458	-0.059052	-0.088501	-0.001678	0.024109
33.603	-0.00412	0.17914	-0.10223	0.006714	0.000153	0.00473	0.73074	0.00351	0.08728	-0.023804	-0.007172	0.003815	0.019531	0.085449	0.17303	-0.00824	0.019073	0.089569	-0.48752	0.028687	-0.076752	-0.062714	0.037537	-0.091095	0.029297	-0.010834	-0.28702	-0.001678	0.076599	-0.09079	-0.003815	0.010376
33.604	-0.002594	0.19943	-0.10193	0.018768	0.003662	-0.006714	0.69305	0.010376	-0.019684	-0.033417	-0.28641	0.003815	0.039368	0.14435	0.058746	0.002289	0.03006	0.15213	-0.18524	0.040436	-0.22705	-0.06134	0.1265	-0.072479	0.00061	-0.009918	-0.00824	-0.000763	0.034485	-0.099945	0.000305	0.018616
33.605	-0.006409	0.21866	-0.038757	0.005188	0.007477	-0.01236	0.70114	0.013428	-0.057831	-0.015564	0.00885	-0.00824	-0.10941	0.04715	0.055389	0.002747	0.06424	0.14084	-0.16739	0.056458	-0.32486	-0.039368	0.12512	-0.096283	0.00351	-0.008392	0.084076	0.006714	0.097656	-0.10605	-0.002441	0.019073
33.606	-0.007935	0.22614	0.031128	0.022888	0.007019	-0.003052	0.6282	0.019531	-0.039368	-0.026703	0.012207	-0.001984	0.02121	-0.034943	-0.028687	0.001831	0.068359	0.13046	-0.22018	0.033722	-0.35538	-0.00946	0.2005	-0.11826	0.020905	-0.005188	-0.1889	-0.003204	0.13062	-0.042419	-0.001678	0.016327
33.607	0.014191	0.27039	0.053864	0.014954	0.00885	-0.0177	0.60974	-0.002899	0.019531	-0.012054	0.014343	0.001984	0.23727	0.005035	-0.01709	-0.005035	0.032806	0.12253	-0.14465	0.037384	0.043488	0.06012	0.19058	-0.046692	-0.010834	-0.006409	-0.23651	-0.006561	0.11093	-0.000153	0	-0.029602
33.608	0.001068	0.27283	-0.007324	-0.012665	0.004578	0.014343	0.57587	-0.016632	-0.018768	-0.013123	-0.04364	0.001373	0.09201	-0.019531	0.10407	0.004425	-0.007629	0.13931	0.31418	0.039215	-0.086823	0.15411	0.13321	0.046844	-0.007324	-0.010529	-0.074768	-0.005035	0.049133	0.005646	-0.002441	-0.032806
33.609	-0.005341	0.28488	-0.05188	-0.006409	0.008392	0.005341	0.54962	-0.006104	-0.082855	-0.0177	-0.081024	0.002289	0.039063	-0.056	0.13702	0.002899	-0.034485	0.1831	0.74707	-0.00824	0.019073	0.3746	0.059357	0.11383	-0.008392	-0.005798	-0.010376	-0.001984	-0.007019	0.049133	-0.009155	-0.034027
33.61	-0.005341	0.34409	0.029144	-0.006256	0.001984	0.012054	0.4657	0.002594	-0.097351	-0.05188	-0.044556	-0.000763	0.042725	-0.15488	0.003967	-0.007477	-0.065002	0.15457	0.57022	-0.028229	0.42725	0.22614	0.006256	0.11063	0.004578	-0.016937	0.059052	-0.001373	-0.065155	0.060883	-0.00061	-0.03418
33.611	-0.002594	0.3746	-0.036926	-0.003815	-0.006104	0.008087	0.44891	0.001831	-0.060272	-0.081329	-0.007629	0.000305	0.092468	-0.1152	-0.070038	-0.014191	-0.046997	0.16541	0.56198	-0.080261	0.35294	0.14481	-0.094452	0.035095	0.012054	-0.023499	0.12711	-0.001068	-0.077515	0.003204	-0.002899	-0.021515
33.612	-0.005493	0.39383	-0.020142	-0.004578	-0.007324	0.002899	0.48401	-0.000305	-0.022125	-0.07782	0.026703	-0.000916	-0.027161	-0.027008	-0.1387	-0.006256	-0.029449	0.18692	0.2771	-0.063629	0.084534	0.092773	-0.18494	0.045166	0.000305	-0.025024	0.11536	-0.004883	-0.053253	0.007324	-0.006561	-0.018921
33.613	-0.007324	0.40237	-0.04425	-0.020905	-0.002136	-0.007477	0.53696	0.004272	-0.039673	-0.062408	0.020905	-0.005798	-0.020294	-0.10452	-0.13016	-0.007935	-0.028992	0.15793	0.059814	-0.013885	0.031281	0.024261	-0.24216	0.03952	0.006256	-0.027771	0.075378	-0.002899	-0.025635	0.000916	-0.002136	-0.011444
33.614	-0.003967	0.42602	-0.13092	-0.002594	0.025787	0.012665	0.6218	0.009155	-0.00824	-0.085907	0.00946	0.007935	0.014954	-0.10559	-0.025482	-0.003662	-0.040131	0.12329	-0.12695	0.040588	0.045471	-0.030975	-0.2565	0.007782	-0.00061	-0.032959	0.11398	-0.003052	-0.002289	-0.014343	-0.002747	-0.010071
33.615	-0.00473	0.4248	-0.09613	0.013733	0.005035	0.018616	0.57419	0.004883	-0.046387	-0.16892	0.018768	0.005646	0.030212	-0.063171	0.013275	-0.003357	-0.001831	0.1619	-0.20538	0.005798	0.012207	-0.11002	-0.26093	-0.04837	-0.000305	-0.035095	0.15259	-0.006561	-0.030365	-0.028534	-0.001526	-0.012054
